# xmcd CD database file
#
# Track frame offsets:
#	150
#	21322
#	43177
#	62437
#	82502
#
# Disc length: 1401 seconds
#
# Revision: 0
# Processed by: cddbd v1.5.1PL2 Copyright (c) Steve Scherf et al.
# Submitted via: CDex 1.51
#
DISCID=30057705
DTITLE=ROCO - HIMALAYA
DYEAR=1900
DGENRE=Jazz
TTITLE0=こわい夢
TTITLE1=オーバーヒート
TTITLE2=またひとつ
TTITLE3=キャッチ
TTITLE4=ねーねーどっち？
EXTD=
EXTT0=
EXTT1=
EXTT2=
EXTT3=
EXTT4=
PLAYORDER=
